<svg height="512" viewBox="0 0 58 58" width="512" xmlns="http://www.w3.org/2000/svg"><g id="Page-1" fill="none" fill-rule="evenodd"><g id="091---Alchemy-Symbol" fill-rule="nonzero"><path id="Shape" d="m56.81 25.77v-.01c-1.5048809-12.8950293-11.6749707-23.06511906-24.57-24.57h-6.48c-12.8950293 1.50488094-23.06511906 11.6749707-24.57 24.57v6.48c1.50488094 12.8950293 11.6749707 23.0651191 24.57 24.57h6.48c12.8950293-1.5048809 23.0651191-11.6749707 24.57-24.57z" fill="#dd4c3c"/><circle id="Oval" cx="29" cy="29" fill="#b73a2b" r="19"/><g fill="#eacc5b"><path id="Shape" d="m25.9 53.805c-11.7195061-1.4874389-20.80776993-10.9590683-21.81-22.73l1.993-.164c.92169281 10.8281296 9.2821461 19.5411195 20.063 20.909z"/><path id="Shape" d="m51.819 26.146c-1.279912-10.4502751-9.5138531-18.68504113-19.964-19.966l.245-1.98c11.3591474 1.39194966 20.3104334 10.3411736 21.705 21.7z"/><path id="Shape" d="m32.231 53.788-.255-1.988c10.3946756-1.3370771 18.5618426-9.5482842 19.843-19.95l1.986.247c-1.3928593 11.3092583-10.2724404 20.2369951-21.574 21.691z"/><path id="Shape" d="m6.18 26.146-1.98-.246c1.3944179-11.3570345 10.3429655-20.3055821 21.7-21.7l.245 1.985c-10.4484114 1.28106745-18.68183902 9.5128455-19.965 19.961z"/></g><path id="Shape" d="m29 10-16.736 28h33.472z" fill="#e7bb19"/><path id="Shape" d="m21 38v-14.62l.23-.38h15.54l.23.38v14.62z" fill="#eacc5b"/><circle id="Oval" cx="29" cy="31" fill="#dc7e25" r="3"/><circle id="Oval" cx="29" cy="53" fill="#e7bb19" r="5"/><path id="Shape" d="m34 53c.0024107.3359451-.0311132.6711847-.1 1h-3.9v3.9c-.66.1333333-1.34.1333333-2 0v-3.9h-3.9c-.1333333-.66-.1333333-1.34 0-2h3.9v-3.9c.66-.1333333 1.34-.1333333 2 0v3.9h3.9c.0688868.3288153.1024107.6640549.1 1z" fill="#e9931f"/><path id="Shape" d="m58 29c.0024107.3359451-.0311132.6711847-.1 1-.4731925 2.330324-2.5221184 4.0050126-4.9 4.0050126s-4.4268075-1.6746886-4.9-4.0050126c-.1333333-.66-.1333333-1.34 0-2 .4731925-2.330324 2.5221184-4.0050126 4.9-4.0050126s4.4268075 1.6746886 4.9 4.0050126c.0688868.3288153.1024107.6640549.1 1z" fill="#e7bb19"/><path id="Shape" d="m58 29c.0024107.3359451-.0311132.6711847-.1 1h-9.8c-.1333333-.66-.1333333-1.34 0-2h9.8c.0688868.3288153.1024107.6640549.1 1z" fill="#e9931f"/><circle id="Oval" cx="29" cy="5" fill="#e7bb19" r="5"/><circle id="Oval" cx="29" cy="5" fill="#e9931f" r="1"/><circle id="Oval" cx="5" cy="29" fill="#e7bb19" r="5"/></g></g></svg>